<?xml version="1.0" standalone="no"?>
<!DOCTYPE svg PUBLIC "-//W3C//DTD SVG 20010904//EN"
 "http://www.w3.org/TR/2001/REC-SVG-20010904/DTD/svg10.dtd">
<svg version="1.0" xmlns="http://www.w3.org/2000/svg"
 width="72.000000pt" height="87.000000pt" viewBox="0 0 72.000000 87.000000"
 preserveAspectRatio="xMidYMid meet">

<g transform="translate(0.000000,87.000000) scale(0.100000,-0.100000)"
fill="#000000" stroke="none">
<path d="M83 660 c-19 -8 -23 -17 -23 -50 0 -22 5 -40 10 -40 6 0 10 18 10 40
0 31 4 40 18 40 9 0 24 5 32 10 12 8 12 10 -5 9 -11 0 -30 -4 -42 -9z"/>
<path d="M195 506 c46 -57 82 -106 79 -109 -3 -2 -22 -1 -42 4 -20 4 -37 7
-39 6 -3 -3 173 -137 180 -137 14 0 247 133 242 138 -5 6 -63 16 -162 28 -78
10 -54 24 40 24 45 0 98 3 119 6 33 6 37 10 48 51 6 25 9 47 7 49 -4 4 -51
-13 -112 -41 -16 -7 -65 -27 -108 -44 l-77 -31 -125 80 c-68 44 -126 80 -129
80 -4 0 32 -47 79 -104z"/>
<path d="M105 480 c9 -151 13 -168 52 -197 18 -14 36 -23 39 -20 6 6 -68 252
-87 292 -6 13 -8 -11 -4 -75z"/>
<path d="M500 268 l-124 -119 54 21 c30 12 78 31 107 41 28 11 55 25 60 32 10
12 37 137 31 142 -2 1 -59 -51 -128 -117z"/>
<path d="M627 273 c-4 -3 -7 -15 -7 -25 0 -11 -13 -23 -35 -32 -19 -8 -35 -20
-35 -26 0 -6 14 -4 37 5 43 18 37 12 51 53 10 29 5 41 -11 25z"/>
</g>
</svg>
